<svg xmlns="http://www.w3.org/2000/svg" viewBox="0 0 86 20" width="86" height="20"><defs><clipPath id="clip_vicroads_logo_black_10"><path d="M0,0h86v19.254h-86z"/></clipPath></defs><g clip-path="url(#clip_vicroads_logo_black_10)"><path d="M22.525,18.088C22.525,18.088 20.208,20.385 18.381,18.533C17.103,17.237 0,0 0,0H4.614L22.525,18.088Z" fill="#000000"/><path d="M22.529,12.71C22.467,11.431 22.303,10.801 22.072,9.953C21.919,9.387 21.7,8.924 21.455,8.574C21.191,8.198 20.808,7.918 20.359,7.764C20.024,7.648 19.684,7.607 19.288,7.593C19.288,9.271 19.288,12.482 19.288,14.069L22.529,17.347V12.709V12.71Z" fill="#000000"/><path d="M19.75,3.819H17.101C17.101,3.819 14.129,6.823 13.856,7.1H18.347C18.675,7.1 18.985,7.094 19.288,7.104C19.721,7.118 20.137,7.163 20.558,7.308C21.12,7.501 21.614,7.856 21.959,8.346C22.253,8.765 22.431,9.256 22.529,9.757V8.964V6.804C22.529,5.312 21.602,3.817 19.75,3.817V3.819Z" fill="#000000"/><path d="M25.94,10.425C25.848,10.195 25.712,10.118 25.47,10.118H25.319V8.844H26.077C26.759,8.844 27.018,9.013 27.245,9.626L28.898,14.092C29.049,14.522 29.172,15.106 29.172,15.106H29.202C29.202,15.106 29.323,14.523 29.474,14.092L31.112,9.626C31.339,9.013 31.613,8.844 32.28,8.844H32.993V10.118H32.842C32.585,10.118 32.432,10.195 32.341,10.425L30.006,16.609H28.307L25.941,10.425H25.94Z" fill="#000000"/><path d="M35.014,10.455C35.014,10.225 34.893,10.118 34.68,10.118H34.058V8.844H35.498C36.181,8.844 36.469,9.136 36.469,9.826V14.997C36.469,15.227 36.59,15.335 36.803,15.335H37.425V16.609H35.984C35.301,16.609 35.014,16.317 35.014,15.627V10.455ZM35.044,5.775H36.363V7.324H35.044V5.775Z" fill="#000000"/><path d="M42.389,8.661C43.313,8.661 45.15,9.043 45.15,10.365V11.162H43.815V10.732C43.815,10.18 42.951,9.935 42.39,9.935C40.888,9.935 39.767,11.07 39.767,12.712C39.767,14.476 41.041,15.474 42.466,15.474C43.892,15.474 44.847,14.399 44.847,14.399L45.485,15.459C45.485,15.459 44.393,16.794 42.36,16.794C39.949,16.794 38.265,15.059 38.265,12.727C38.265,10.395 39.918,8.661 42.39,8.661H42.389Z" fill="#000000"/><path d="M48.992,10.455C48.992,10.225 48.871,10.118 48.658,10.118H48.036V8.844H49.431C50.099,8.844 50.417,9.121 50.417,9.749V10.239C50.417,10.546 50.387,10.776 50.387,10.776H50.417C50.782,9.641 51.661,8.75 52.845,8.75C53.042,8.75 53.238,8.78 53.238,8.78V10.254C53.238,10.254 53.041,10.208 52.798,10.208C51.858,10.208 50.993,10.882 50.645,12.034C50.508,12.479 50.462,12.954 50.462,13.431V16.608H48.992V10.454V10.455Z" fill="#000000"/><path d="M57.719,8.661C60.008,8.661 61.859,10.365 61.859,12.712C61.859,15.059 60.008,16.795 57.719,16.795C55.429,16.795 53.593,15.076 53.593,12.712C53.593,10.348 55.429,8.661 57.719,8.661ZM57.719,15.504C59.175,15.504 60.357,14.339 60.357,12.71C60.357,11.082 59.174,9.949 57.719,9.949C56.263,9.949 55.095,11.1 55.095,12.71C55.095,14.321 56.278,15.504 57.719,15.504Z" fill="#000000"/><path d="M67.603,11.775H67.936V11.699C67.936,10.334 67.435,9.842 66.237,9.842C65.872,9.842 64.978,9.935 64.978,10.44V10.885H63.597V10.118C63.597,8.844 65.509,8.661 66.251,8.661C68.738,8.661 69.405,9.98 69.405,11.699V14.998C69.405,15.229 69.526,15.336 69.739,15.336H70.361V16.61H68.982C68.298,16.61 68.026,16.273 68.026,15.72C68.026,15.46 68.056,15.26 68.056,15.26H68.026C68.026,15.26 67.419,16.795 65.584,16.795C64.264,16.795 62.975,15.981 62.975,14.431C62.975,11.929 66.312,11.775 67.601,11.775H67.603ZM65.904,15.596C67.148,15.596 67.951,14.277 67.951,13.125V12.865H67.571C66.465,12.865 64.462,12.927 64.462,14.354C64.462,14.983 64.932,15.596 65.902,15.596H65.904Z" fill="#000000"/><path d="M74.557,8.661C76.332,8.661 76.923,9.858 76.923,9.858H76.953C76.953,9.858 76.923,9.628 76.923,9.336V7.386C76.923,7.156 76.802,7.049 76.59,7.049H75.967V5.775H77.424C78.108,5.775 78.395,6.067 78.395,6.757V14.997C78.395,15.227 78.516,15.335 78.729,15.335H79.351V16.609H77.94C77.273,16.609 76.999,16.302 76.999,15.78C76.999,15.55 77.014,15.382 77.014,15.382H76.984C76.984,15.382 76.347,16.794 74.467,16.794C72.39,16.794 71.085,15.136 71.085,12.727C71.085,10.318 72.526,8.661 74.558,8.661H74.557ZM76.968,12.712C76.968,11.33 76.256,9.95 74.784,9.95C73.586,9.95 72.586,10.962 72.586,12.727C72.586,14.492 73.48,15.504 74.754,15.504C75.893,15.504 76.968,14.69 76.968,12.71V12.712Z" fill="#000000"/><path d="M80.873,14.431C80.873,14.431 81.782,15.583 83.193,15.583C83.906,15.583 84.527,15.26 84.527,14.585C84.527,13.189 80.34,13.341 80.34,10.841C80.34,9.352 81.63,8.662 83.191,8.662C84.117,8.662 85.71,8.984 85.71,10.165V10.902H84.391V10.517C84.391,10.057 83.707,9.858 83.238,9.858C82.373,9.858 81.812,10.165 81.812,10.779C81.812,12.252 85.999,11.931 85.999,14.523C85.999,15.905 84.786,16.795 83.178,16.795C81.13,16.795 80.115,15.428 80.115,15.428L80.873,14.431Z" fill="#000000"/></g></svg>
